<svg id="Camada_1" data-name="Camada 1" xmlns="http://www.w3.org/2000/svg" viewBox="0 0 300 300">
  <defs>
    <style>
      .cls-1 {
        fill: #523468;
      }

      .cls-2 {
        fill: #c6bed6;
      }
    </style>
  </defs>
  <title>cauldron</title>
  <g id="layer4">
    <g id="g16394">
      <path id="path16396" class="cls-1" d="M234,134.57l-8.47-5.64c19.94-12.66,34.39-25.67,34.39-44.77,0-37.67-51.44-69.39-109.48-69.39S42.06,45.26,42.06,82.94c0,17.26,13.23,33,29.51,45l-9.11,5.2c-18.15-13.39-29.18-31-29.18-50.19C33.29,41,85.85,6.27,150.46,6.27S268.71,42.21,268.71,84.15c0,21.27-13.38,36.88-34.69,50.41Z"/>
      <path id="path16398" class="cls-1" d="M61.44,243.31C54,247,47.61,280.9,45.14,285c-7.14,12-13.28,7.68,9.54,8.68,8.55.38,3.87-15.32,9.54-20.7,9.37-8.9,21.71-9.27,33.4-3.67,8-6.74-16.19-12.08-25-18-5.4-6.11-4.32-8-11.13-8Z"/>
      <path id="path16400" class="cls-1" d="M240,243.79c9.79,3.35,13.6,32.27,16.7,41.26,7.14,12,13.67,7-9.54,8-8.55.37-3.87-14.65-9.54-20-9.37-8.9-21.71-9.93-33.4-4.34-8-6.74,15-11.08,23.85-17,11.85-8,1.83-19.83,11.93-7.87Z"/>
      <path id="path16402" class="cls-1" d="M140.56,267.94c3.35,7.68,5,14.64,5.27,25.71,3.7.19,7.42,0,11.13,0-1.06-11.75,2.37-18.1,4.27-25.71Z"/>
      <path id="rect16404" class="cls-1" d="M66.62,118.92l1.75,1.65a2.85,2.85,0,0,1,.33,4l-9.8,10.34a2.87,2.87,0,0,1-4-.1l-1.75-1.65a2.85,2.85,0,0,1-.33-4l9.8-10.34A2.87,2.87,0,0,1,66.62,118.92Z"/>
      <path id="rect16406" class="cls-1" d="M235.37,118.92l-1.75,1.65a2.85,2.85,0,0,0-.33,4l9.8,10.34a2.87,2.87,0,0,0,4-.1l1.75-1.65a2.85,2.85,0,0,0,.33-4l-9.8-10.34A2.87,2.87,0,0,0,235.37,118.92Z"/>
      <path id="path16408" class="cls-1" d="M262.3,185.55c0,53-49.86,96-111.3,96s-111.3-43-111.3-96c0-24.76,10.89-47.34,28.75-64.37-9-29.74,49.82-31.11,82.55-31.63,38.06-.6,92.28-1.27,80.73,29.93C250.67,136.7,262.3,160,262.3,185.55Z"/>
      <path id="path16410" class="cls-1" d="M241.84,99.86c0,14.12-40.7,25.59-90.84,25.59S60.16,114,60.16,99.86,100.85,74.27,151,74.27,241.84,85.73,241.84,99.86Z"/>
      <path id="path16412" class="cls-2" d="M221.09,99.86c0,8.9-31.4,16.12-70.1,16.12s-70.1-7.22-70.1-16.12S112.3,83.74,151,83.74,221.09,91,221.09,99.86Z"/>
    </g>
  </g>
</svg>
