<?xml version="1.0" standalone="no"?><!-- Generator: Gravit.io --><svg xmlns="http://www.w3.org/2000/svg" xmlns:xlink="http://www.w3.org/1999/xlink" style="isolation:isolate" viewBox="0 0 448 512" width="448" height="512"><defs><clipPath id="_clipPath_xtBOmBM56FCWxcnC6IsVzgBPt99M6Cjb"><rect width="448" height="512"/></clipPath></defs><g clip-path="url(#_clipPath_xtBOmBM56FCWxcnC6IsVzgBPt99M6Cjb)"><clipPath id="_clipPath_yXJMgxMm0S9gaakvNlq0tJcLltFA6BV7"><circle vector-effect="non-scaling-stroke" cx="223" cy="255" r="215.5" fill="rgb(255,255,255)"/></clipPath><g clip-path="url(#_clipPath_yXJMgxMm0S9gaakvNlq0tJcLltFA6BV7)"><path d=" M 448 80 L 448 432 C 448 458.5 426.5 480 400 480 L 314.7 480 L 314.7 302.8 L 375.3 302.8 L 384 235.2 L 314.7 235.2 L 314.7 192 C 314.7 172.4 320.1 159.1 348.2 159.1 L 384 159.1 L 384 98.7 C 377.8 97.9 356.6 96 331.8 96 C 280.2 96 244.8 127.5 244.8 185.4 L 244.8 235.3 L 184 235.3 L 184 302.9 L 244.9 302.9 L 244.9 480 L 48 480 C 21.5 480 0 458.5 0 432 L 0 80 C 0 53.5 21.5 32 48 32 L 400 32 C 426.5 32 448 53.5 448 80 Z " fill="rgb(82,52,104)"/></g></g></svg>