<?xml version="1.0" standalone="no"?><!-- Generator: Gravit.io --><svg xmlns="http://www.w3.org/2000/svg" xmlns:xlink="http://www.w3.org/1999/xlink" style="isolation:isolate" viewBox="0 0 448 512" width="448" height="512"><defs><clipPath id="_clipPath_JxIDqK12z0YyRCktMJtJniifd7isFFwu"><rect width="448" height="512"/></clipPath></defs><g clip-path="url(#_clipPath_JxIDqK12z0YyRCktMJtJniifd7isFFwu)"><clipPath id="_clipPath_HXe6wbPE2R946y5ZxW3ao22083uRuDze"><circle vector-effect="non-scaling-stroke" cx="224" cy="256" r="215.5" fill="rgb(255,255,255)"/></clipPath><g clip-path="url(#_clipPath_HXe6wbPE2R946y5ZxW3ao22083uRuDze)"><path d=" M 400 32 L 48 32 C 21.5 32 0 53.5 0 80 L 0 432 C 0 458.5 21.5 480 48 480 L 400 480 C 426.5 480 448 458.5 448 432 L 448 80 C 448 53.5 426.5 32 400 32 Z  M 164 356 C 108.7 356 64 311.3 64 256 C 64 200.7 108.7 156 164 156 C 191 156 213.5 165.8 231 182.2 L 203.9 208.3 C 196.5 201.2 183.6 192.9 164.1 192.9 C 130 192.9 102.2 221.1 102.2 256.1 C 102.2 291 130 319.3 164.1 319.3 C 203.7 319.3 218.5 290.8 220.9 276.2 L 164 276.2 L 164 241.8 L 258.4 241.8 C 259.4 246.8 260 251.9 260 258.4 C 260 315.5 221.7 356 164 356 L 164 356 L 164 356 Z  M 384 274.2 L 355 274.2 L 355 303.2 L 325.8 303.2 L 325.8 274.2 L 296.8 274.2 L 296.8 245 L 325.8 245 L 325.8 216 L 355 216 L 355 245 L 384 245 L 384 274.2 L 384 274.2 Z " fill="rgb(82,52,104)"/></g></g></svg>