<?xml version="1.0" encoding="utf-8"?>
<!-- Generator: Adobe Illustrator 21.0.0, SVG Export Plug-In . SVG Version: 6.00 Build 0)  -->
<svg version="1.1" id="Camada_1" xmlns="http://www.w3.org/2000/svg" xmlns:xlink="http://www.w3.org/1999/xlink" x="0px" y="0px"
	 viewBox="0 0 300 300" style="enable-background:new 0 0 300 300;" xml:space="preserve">
<style type="text/css">
	.st0{fill:#D73A1E;}
</style>
<g>
	<path class="st0" d="M296.1,275c0,2.5,0,5,0,7.5c-0.8,2.7-1.6,5.4-3.4,7.7c-3.2,4.1-7.3,6.7-12.5,7.7c-2.5,0-5,0-7.5,0
		c-5-0.8-8.8-3.5-12.3-7c-34-34-68-68-102-102c-0.5-0.5-1.1-1.1-1.7-1.6c-0.8-0.8-1.6-0.9-2.5-0.2c-6.8,4.6-14.3,7.9-22.1,10.4
		c-6.1,2-12.3,3.4-18.6,4.1c-3.7,0.4-7.5,0.7-11.1,0.7c-4.5,0-9-0.2-13.5-0.8c-11.6-1.6-22.6-5-32.9-10.5
		c-10.8-5.7-20.3-13.2-28.4-22.4c-6.6-7.6-12-15.9-16-25.1c-4.3-9.7-7.2-19.9-7.5-30.6c-0.1-1.7,0.3-3.5-0.2-5.3c0-2.5,0-5,0-7.5
		c0.5-1.7,0.1-3.5,0.2-5.3c0.2-8.2,2.1-16.1,4.8-23.9c3.9-11.2,9.7-21.3,17.3-30.4c9.2-10.9,20.1-19.5,33-25.6
		c8.8-4.2,18-7.2,27.7-8.5c1.8-0.2,3.5-0.3,5.3-0.4c1.8-0.1,3.6,0.3,5.3-0.2c2.6,0,5.3,0,7.9,0c1.7,0.5,3.5,0.1,5.2,0.2
		c8.5,0.2,16.6,2.3,24.5,5.1c10.3,3.6,19.7,8.9,28.1,15.8c12,9.7,21.4,21.6,27.9,35.7c2.8,6.1,4.9,12.4,6.4,19
		c1.4,5.9,2,11.9,2.3,18c0.5,8.2-0.2,16.3-1.9,24.3c-2.3,11.4-6.5,22-12.8,31.8c-0.8,1.3-0.9,2.3,0.3,3.3c0.5,0.5,1,1,1.5,1.5
		c33.9,33.9,67.8,67.8,101.6,101.6c2.3,2.3,4.3,4.9,5.8,7.8C295.6,271.6,295.5,273.4,296.1,275z M102.1,167.3
		c34.8,0.1,63.6-29,63.4-63.6c-0.2-35.2-28.7-63.9-63.7-63.7c-35.1,0.2-63.6,28.8-63.5,63.7C38.4,139,67,167.3,102.1,167.3z"/>
	<path class="st0" d="M111.3,5.8c0,0.1,0,0.3,0,0.4c-1.9,0.1-3.8,0.3-5.6-0.4C107.6,5.8,109.5,5.8,111.3,5.8z"/>
	<path class="st0" d="M4,94.4c0.1-0.1,0.3-0.1,0.4,0c0.1,1.9,0.3,3.8-0.4,5.6C4,98.2,4,96.3,4,94.4z"/>
	<path class="st0" d="M4.4,113.1l-0.2,0l-0.2,0c0-1.9,0-3.7,0-5.6C4.8,109.3,4.6,111.2,4.4,113.1z"/>
</g>
</svg>
