<?xml version="1.0" standalone="no"?><!-- Generator: Gravit.io --><svg xmlns="http://www.w3.org/2000/svg" xmlns:xlink="http://www.w3.org/1999/xlink" style="isolation:isolate" viewBox="0 0 250 66" width="250" height="66"><defs><clipPath id="_clipPath_msgHWPT3i8V5cCXLUw1BNoDMWGT2rZ7u"><rect width="250" height="66"/></clipPath></defs><g clip-path="url(#_clipPath_msgHWPT3i8V5cCXLUw1BNoDMWGT2rZ7u)"><path d=" M 139.3 36.755 L 139.3 8.405 L 146.09 8.405 L 146.09 8.405 Q 149.695 8.405 151.253 10.365 L 151.253 10.365 L 151.253 10.365 Q 152.81 12.325 152.81 15.93 L 152.81 15.93 L 152.81 15.93 Q 152.81 19.22 151.183 21.285 L 151.183 21.285 L 151.183 21.285 Q 149.555 23.35 146.125 23.35 L 146.125 23.35 L 141.96 23.35 L 141.96 36.755 L 139.3 36.755 L 139.3 36.755 Z  M 141.96 21.355 L 145.355 21.355 L 145.355 21.355 Q 147.98 21.355 149.083 20.148 L 149.083 20.148 L 149.083 20.148 Q 150.185 18.94 150.185 15.93 L 150.185 15.93 L 150.185 15.93 Q 150.185 13.725 149.765 12.553 L 149.765 12.553 L 149.765 12.553 Q 149.345 11.38 148.33 10.89 L 148.33 10.89 L 148.33 10.89 Q 147.315 10.4 145.39 10.4 L 145.39 10.4 L 141.96 10.4 L 141.96 21.355 L 141.96 21.355 Z  M 162.925 37.105 L 162.925 37.105 Q 158.935 37.105 157.273 34.83 L 157.273 34.83 L 157.273 34.83 Q 155.61 32.555 155.61 28.39 L 155.61 28.39 L 155.61 16.63 L 155.61 16.63 Q 155.61 12.5 157.29 10.313 L 157.29 10.313 L 157.29 10.313 Q 158.97 8.125 162.925 8.125 L 162.925 8.125 L 162.925 8.125 Q 166.81 8.125 168.49 10.33 L 168.49 10.33 L 168.49 10.33 Q 170.17 12.535 170.17 16.63 L 170.17 16.63 L 170.17 28.425 L 170.17 28.425 Q 170.17 32.59 168.525 34.848 L 168.525 34.848 L 168.525 34.848 Q 166.88 37.105 162.925 37.105 L 162.925 37.105 L 162.925 37.105 Z  M 162.925 34.97 L 162.925 34.97 Q 165.515 34.97 166.495 33.448 L 166.495 33.448 L 166.495 33.448 Q 167.475 31.925 167.475 28.985 L 167.475 28.985 L 167.475 16.14 L 167.475 16.14 Q 167.475 13.2 166.513 11.73 L 166.513 11.73 L 166.513 11.73 Q 165.55 10.26 162.925 10.26 L 162.925 10.26 L 162.925 10.26 Q 160.265 10.26 159.285 11.712 L 159.285 11.712 L 159.285 11.712 Q 158.305 13.165 158.305 16.14 L 158.305 16.14 L 158.305 28.985 L 158.305 28.985 Q 158.305 31.96 159.285 33.465 L 159.285 33.465 L 159.285 33.465 Q 160.265 34.97 162.925 34.97 L 162.925 34.97 L 162.925 34.97 Z  M 178.08 36.755 L 178.08 10.47 L 172.725 10.47 L 172.725 8.405 L 185.955 8.405 L 185.955 10.47 L 180.74 10.47 L 180.74 36.755 L 178.08 36.755 L 178.08 36.755 Z  M 189.14 36.755 L 189.14 8.405 L 191.8 8.405 L 191.8 36.755 L 189.14 36.755 L 189.14 36.755 Z  M 203.56 37.105 L 203.56 37.105 Q 199.57 37.105 197.908 34.83 L 197.908 34.83 L 197.908 34.83 Q 196.245 32.555 196.245 28.39 L 196.245 28.39 L 196.245 16.63 L 196.245 16.63 Q 196.245 12.5 197.925 10.313 L 197.925 10.313 L 197.925 10.313 Q 199.605 8.125 203.56 8.125 L 203.56 8.125 L 203.56 8.125 Q 207.445 8.125 209.125 10.33 L 209.125 10.33 L 209.125 10.33 Q 210.805 12.535 210.805 16.63 L 210.805 16.63 L 210.805 28.425 L 210.805 28.425 Q 210.805 32.59 209.16 34.848 L 209.16 34.848 L 209.16 34.848 Q 207.515 37.105 203.56 37.105 L 203.56 37.105 L 203.56 37.105 Z  M 203.56 34.97 L 203.56 34.97 Q 206.15 34.97 207.13 33.448 L 207.13 33.448 L 207.13 33.448 Q 208.11 31.925 208.11 28.985 L 208.11 28.985 L 208.11 16.14 L 208.11 16.14 Q 208.11 13.2 207.148 11.73 L 207.148 11.73 L 207.148 11.73 Q 206.185 10.26 203.56 10.26 L 203.56 10.26 L 203.56 10.26 Q 200.9 10.26 199.92 11.712 L 199.92 11.712 L 199.92 11.712 Q 198.94 13.165 198.94 16.14 L 198.94 16.14 L 198.94 28.985 L 198.94 28.985 Q 198.94 31.96 199.92 33.465 L 199.92 33.465 L 199.92 33.465 Q 200.9 34.97 203.56 34.97 L 203.56 34.97 L 203.56 34.97 Z  M 215.215 36.755 L 215.215 8.405 L 217.14 8.405 L 226.17 30.42 L 226.17 8.405 L 228.48 8.405 L 228.48 36.755 L 226.59 36.755 L 217.525 14.495 L 217.525 36.755 L 215.215 36.755 L 215.215 36.755 Z  M 239.435 37.105 L 239.435 37.105 Q 236.11 37.105 234.36 35.058 L 234.36 35.058 L 234.36 35.058 Q 232.61 33.01 232.365 29.405 L 232.365 29.405 L 234.71 28.705 L 234.71 28.705 Q 235.025 31.715 236.058 33.325 L 236.058 33.325 L 236.058 33.325 Q 237.09 34.935 239.47 34.935 L 239.47 34.935 L 239.47 34.935 Q 243.46 34.935 243.46 30.84 L 243.46 30.84 L 243.46 30.84 Q 243.46 29.09 242.638 27.76 L 242.638 27.76 L 242.638 27.76 Q 241.815 26.43 239.995 24.715 L 239.995 24.715 L 234.99 19.92 L 234.99 19.92 Q 233.625 18.66 233.013 17.278 L 233.013 17.278 L 233.013 17.278 Q 232.4 15.895 232.4 14.215 L 232.4 14.215 L 232.4 14.215 Q 232.4 11.31 234.133 9.718 L 234.133 9.718 L 234.133 9.718 Q 235.865 8.125 238.805 8.125 L 238.805 8.125 L 238.805 8.125 Q 241.955 8.125 243.635 9.805 L 243.635 9.805 L 243.635 9.805 Q 245.315 11.485 245.595 15.3 L 245.595 15.3 L 243.32 15.895 L 243.32 15.895 Q 243.11 13.025 242.113 11.625 L 242.113 11.625 L 242.113 11.625 Q 241.115 10.225 238.805 10.225 L 238.805 10.225 L 238.805 10.225 Q 236.985 10.225 235.9 11.17 L 235.9 11.17 L 235.9 11.17 Q 234.815 12.115 234.815 13.97 L 234.815 13.97 L 234.815 13.97 Q 234.815 15.16 235.27 16.105 L 235.27 16.105 L 235.27 16.105 Q 235.725 17.05 236.81 18.1 L 236.81 18.1 L 241.815 22.825 L 241.815 22.825 Q 243.74 24.645 244.843 26.553 L 244.843 26.553 L 244.843 26.553 Q 245.945 28.46 245.945 30.665 L 245.945 30.665 L 245.945 30.665 Q 245.945 33.745 244.16 35.425 L 244.16 35.425 L 244.16 35.425 Q 242.375 37.105 239.435 37.105 L 239.435 37.105 L 239.435 37.105 Z  M 2.03 36.755 L 2.52 8.405 L 8.645 8.405 L 12.145 26.29 L 15.855 8.405 L 21.77 8.405 L 22.295 36.755 L 18.095 36.755 L 17.64 17.505 L 14 36.755 L 10.43 36.755 L 6.685 17.4 L 6.265 36.755 L 2.03 36.755 L 2.03 36.755 Z  M 26.46 36.755 L 26.46 8.405 L 38.815 8.405 L 38.815 12.395 L 32.2 12.395 L 32.2 19.92 L 37.31 19.92 L 37.31 23.945 L 32.2 23.945 L 32.2 32.835 L 38.885 32.835 L 38.885 36.755 L 26.46 36.755 L 26.46 36.755 Z  M 41.825 36.755 L 41.825 8.405 L 49.175 8.405 L 49.175 8.405 Q 53.76 8.405 56.07 10.085 L 56.07 10.085 L 56.07 10.085 Q 58.38 11.765 58.38 15.895 L 58.38 15.895 L 58.38 15.895 Q 58.38 18.66 57.61 20.358 L 57.61 20.358 L 57.61 20.358 Q 56.84 22.055 54.88 22.93 L 54.88 22.93 L 58.8 36.755 L 52.885 36.755 L 49.665 23.91 L 47.565 23.91 L 47.565 36.755 L 41.825 36.755 L 41.825 36.755 Z  M 47.565 20.48 L 49.28 20.48 L 49.28 20.48 Q 51.31 20.48 52.133 19.483 L 52.133 19.483 L 52.133 19.483 Q 52.955 18.485 52.955 16.35 L 52.955 16.35 L 52.955 16.35 Q 52.955 14.25 52.22 13.27 L 52.22 13.27 L 52.22 13.27 Q 51.485 12.29 49.56 12.29 L 49.56 12.29 L 47.565 12.29 L 47.565 20.48 L 47.565 20.48 Z  M 62.23 36.755 L 62.23 8.405 L 67.97 8.405 L 67.97 32.835 L 74.655 32.835 L 74.655 36.755 L 62.23 36.755 L 62.23 36.755 Z  M 77.455 36.755 L 77.455 8.405 L 83.195 8.405 L 83.195 36.755 L 77.455 36.755 L 77.455 36.755 Z  M 87.5 36.755 L 87.5 8.405 L 91.525 8.405 L 97.825 23.14 L 97.825 8.405 L 102.62 8.405 L 102.62 36.755 L 98.735 36.755 L 92.435 21.075 L 92.435 36.755 L 87.5 36.755 L 87.5 36.755 Z  M 105.595 18.52 L 105.595 8.405 L 109.97 8.405 L 108.185 18.52 L 105.595 18.52 L 105.595 18.52 Z  M 119.84 37.14 L 119.84 37.14 Q 115.92 37.14 113.96 34.988 L 113.96 34.988 L 113.96 34.988 Q 112 32.835 111.825 28.32 L 111.825 28.32 L 116.795 27.48 L 116.795 27.48 Q 116.865 30.175 117.548 31.453 L 117.548 31.453 L 117.548 31.453 Q 118.23 32.73 119.595 32.73 L 119.595 32.73 L 119.595 32.73 Q 120.61 32.73 121.065 32.083 L 121.065 32.083 L 121.065 32.083 Q 121.52 31.435 121.52 30.42 L 121.52 30.42 L 121.52 30.42 Q 121.52 28.74 120.768 27.568 L 120.768 27.568 L 120.768 27.568 Q 120.015 26.395 118.405 24.995 L 118.405 24.995 L 115.465 22.44 L 115.465 22.44 Q 113.715 20.97 112.788 19.29 L 112.788 19.29 L 112.788 19.29 Q 111.86 17.61 111.86 15.265 L 111.86 15.265 L 111.86 15.265 Q 111.86 11.8 113.908 9.927 L 113.908 9.927 L 113.908 9.927 Q 115.955 8.055 119.56 8.055 L 119.56 8.055 L 119.56 8.055 Q 123.41 8.055 124.915 10.278 L 124.915 10.278 L 124.915 10.278 Q 126.42 12.5 126.63 15.93 L 126.63 15.93 L 121.625 16.665 L 121.625 16.665 Q 121.555 14.425 121.118 13.358 L 121.118 13.358 L 121.118 13.358 Q 120.68 12.29 119.385 12.29 L 119.385 12.29 L 119.385 12.29 Q 118.44 12.29 117.915 13.008 L 117.915 13.008 L 117.915 13.008 Q 117.39 13.725 117.39 14.705 L 117.39 14.705 L 117.39 14.705 Q 117.39 16.105 118.003 17.068 L 118.003 17.068 L 118.003 17.068 Q 118.615 18.03 119.945 19.185 L 119.945 19.185 L 122.815 21.705 L 122.815 21.705 Q 124.845 23.49 126 25.468 L 126 25.468 L 126 25.468 Q 127.155 27.445 127.155 30.105 L 127.155 30.105 L 127.155 30.105 Q 127.155 32.135 126.245 33.728 L 126.245 33.728 L 126.245 33.728 Q 125.335 35.32 123.673 36.23 L 123.673 36.23 L 123.673 36.23 Q 122.01 37.14 119.84 37.14 L 119.84 37.14 L 119.84 37.14 Z " fill-rule="evenodd" fill="rgb(215,58,30)"/><path d=" M 177.211 45.898 L 177.211 57.32 L 175.836 57.32 L 175.836 50.188 L 175.836 50.188 Q 175.836 49.852 175.84 49.469 L 175.84 49.469 L 175.84 49.469 Q 175.844 49.086 175.855 48.707 L 175.855 48.707 L 175.855 48.707 Q 175.867 48.328 175.879 47.98 L 175.879 47.98 L 175.879 47.98 Q 175.891 47.633 175.898 47.367 L 175.898 47.367 L 175.898 47.367 Q 175.766 47.508 175.664 47.609 L 175.664 47.609 L 175.664 47.609 Q 175.563 47.711 175.457 47.805 L 175.457 47.805 L 175.457 47.805 Q 175.352 47.898 175.234 48.004 L 175.234 48.004 L 175.234 48.004 Q 175.117 48.109 174.953 48.25 L 174.953 48.25 L 173.797 49.195 L 173.047 48.234 L 176.039 45.898 L 177.211 45.898 L 177.211 45.898 Z  M 188.531 51.594 L 188.531 51.594 L 188.531 51.594 Q 188.531 52.977 188.332 54.07 L 188.332 54.07 L 188.332 54.07 Q 188.133 55.164 187.691 55.922 L 187.691 55.922 L 187.691 55.922 Q 187.25 56.68 186.555 57.078 L 186.555 57.078 L 186.555 57.078 Q 185.859 57.477 184.867 57.477 L 184.867 57.477 L 184.867 57.477 Q 183.945 57.477 183.262 57.078 L 183.262 57.078 L 183.262 57.078 Q 182.578 56.68 182.129 55.922 L 182.129 55.922 L 182.129 55.922 Q 181.68 55.164 181.457 54.07 L 181.457 54.07 L 181.457 54.07 Q 181.234 52.977 181.234 51.594 L 181.234 51.594 L 181.234 51.594 Q 181.234 50.211 181.434 49.117 L 181.434 49.117 L 181.434 49.117 Q 181.633 48.023 182.066 47.27 L 182.066 47.27 L 182.066 47.27 Q 182.5 46.516 183.191 46.117 L 183.191 46.117 L 183.191 46.117 Q 183.883 45.719 184.867 45.719 L 184.867 45.719 L 184.867 45.719 Q 185.797 45.719 186.484 46.113 L 186.484 46.113 L 186.484 46.113 Q 187.172 46.508 187.625 47.262 L 187.625 47.262 L 187.625 47.262 Q 188.078 48.016 188.305 49.109 L 188.305 49.109 L 188.305 49.109 Q 188.531 50.203 188.531 51.594 Z  M 182.68 51.594 L 182.68 51.594 L 182.68 51.594 Q 182.68 52.766 182.797 53.641 L 182.797 53.641 L 182.797 53.641 Q 182.914 54.516 183.172 55.098 L 183.172 55.098 L 183.172 55.098 Q 183.43 55.68 183.848 55.973 L 183.848 55.973 L 183.848 55.973 Q 184.266 56.266 184.867 56.266 L 184.867 56.266 L 184.867 56.266 Q 185.469 56.266 185.891 55.977 L 185.891 55.977 L 185.891 55.977 Q 186.313 55.688 186.582 55.109 L 186.582 55.109 L 186.582 55.109 Q 186.852 54.531 186.973 53.652 L 186.973 53.652 L 186.973 53.652 Q 187.094 52.773 187.094 51.594 L 187.094 51.594 L 187.094 51.594 Q 187.094 50.422 186.973 49.547 L 186.973 49.547 L 186.973 49.547 Q 186.852 48.672 186.582 48.094 L 186.582 48.094 L 186.582 48.094 Q 186.313 47.516 185.891 47.227 L 185.891 47.227 L 185.891 47.227 Q 185.469 46.938 184.867 46.938 L 184.867 46.938 L 184.867 46.938 Q 184.266 46.938 183.848 47.227 L 183.848 47.227 L 183.848 47.227 Q 183.43 47.516 183.172 48.094 L 183.172 48.094 L 183.172 48.094 Q 182.914 48.672 182.797 49.547 L 182.797 49.547 L 182.797 49.547 Q 182.68 50.422 182.68 51.594 Z  M 197.156 56.023 L 197.156 57.32 L 190.031 57.32 L 190.031 56.102 L 192.766 53.125 L 192.766 53.125 Q 193.352 52.492 193.813 51.969 L 193.813 51.969 L 193.813 51.969 Q 194.273 51.445 194.598 50.945 L 194.598 50.945 L 194.598 50.945 Q 194.922 50.445 195.094 49.941 L 195.094 49.941 L 195.094 49.941 Q 195.266 49.438 195.266 48.844 L 195.266 48.844 L 195.266 48.844 Q 195.266 48.383 195.133 48.031 L 195.133 48.031 L 195.133 48.031 Q 195 47.68 194.754 47.434 L 194.754 47.434 L 194.754 47.434 Q 194.508 47.188 194.172 47.063 L 194.172 47.063 L 194.172 47.063 Q 193.836 46.938 193.422 46.938 L 193.422 46.938 L 193.422 46.938 Q 192.68 46.938 192.082 47.238 L 192.082 47.238 L 192.082 47.238 Q 191.484 47.539 190.945 48.008 L 190.945 48.008 L 190.148 47.078 L 190.148 47.078 Q 190.461 46.797 190.82 46.551 L 190.82 46.551 L 190.82 46.551 Q 191.18 46.305 191.594 46.125 L 191.594 46.125 L 191.594 46.125 Q 192.008 45.945 192.469 45.84 L 192.469 45.84 L 192.469 45.84 Q 192.93 45.734 193.438 45.734 L 193.438 45.734 L 193.438 45.734 Q 194.188 45.734 194.793 45.945 L 194.793 45.945 L 194.793 45.945 Q 195.398 46.156 195.82 46.551 L 195.82 46.551 L 195.82 46.551 Q 196.242 46.945 196.473 47.512 L 196.473 47.512 L 196.473 47.512 Q 196.703 48.078 196.703 48.789 L 196.703 48.789 L 196.703 48.789 Q 196.703 49.453 196.496 50.055 L 196.496 50.055 L 196.496 50.055 Q 196.289 50.656 195.926 51.238 L 195.926 51.238 L 195.926 51.238 Q 195.563 51.82 195.059 52.406 L 195.059 52.406 L 195.059 52.406 Q 194.555 52.992 193.969 53.625 L 193.969 53.625 L 191.773 55.961 L 191.773 56.023 L 197.156 56.023 L 197.156 56.023 Z  M 198.977 52.438 L 198.977 52.438 L 198.977 52.438 Q 198.977 51.617 199.059 50.805 L 199.059 50.805 L 199.059 50.805 Q 199.141 49.992 199.348 49.246 L 199.348 49.246 L 199.348 49.246 Q 199.555 48.5 199.914 47.859 L 199.914 47.859 L 199.914 47.859 Q 200.273 47.219 200.828 46.746 L 200.828 46.746 L 200.828 46.746 Q 201.383 46.273 202.156 46.004 L 202.156 46.004 L 202.156 46.004 Q 202.93 45.734 203.969 45.734 L 203.969 45.734 L 203.969 45.734 Q 204.117 45.734 204.297 45.742 L 204.297 45.742 L 204.297 45.742 Q 204.477 45.75 204.66 45.77 L 204.66 45.77 L 204.66 45.77 Q 204.844 45.789 205.012 45.816 L 205.012 45.816 L 205.012 45.816 Q 205.18 45.844 205.313 45.883 L 205.313 45.883 L 205.313 47.094 L 205.313 47.094 Q 205.039 47 204.695 46.953 L 204.695 46.953 L 204.695 46.953 Q 204.352 46.906 204.016 46.906 L 204.016 46.906 L 204.016 46.906 Q 203.313 46.906 202.777 47.074 L 202.777 47.074 L 202.777 47.074 Q 202.242 47.242 201.852 47.547 L 201.852 47.547 L 201.852 47.547 Q 201.461 47.852 201.199 48.273 L 201.199 48.273 L 201.199 48.273 Q 200.938 48.695 200.773 49.207 L 200.773 49.207 L 200.773 49.207 Q 200.609 49.719 200.531 50.297 L 200.531 50.297 L 200.531 50.297 Q 200.453 50.875 200.43 51.5 L 200.43 51.5 L 200.523 51.5 L 200.523 51.5 Q 200.68 51.219 200.902 50.973 L 200.902 50.973 L 200.902 50.973 Q 201.125 50.727 201.422 50.551 L 201.422 50.551 L 201.422 50.551 Q 201.719 50.375 202.09 50.273 L 202.09 50.273 L 202.09 50.273 Q 202.461 50.172 202.922 50.172 L 202.922 50.172 L 202.922 50.172 Q 203.664 50.172 204.266 50.402 L 204.266 50.402 L 204.266 50.402 Q 204.867 50.633 205.289 51.078 L 205.289 51.078 L 205.289 51.078 Q 205.711 51.523 205.941 52.168 L 205.941 52.168 L 205.941 52.168 Q 206.172 52.813 206.172 53.641 L 206.172 53.641 L 206.172 53.641 Q 206.172 54.531 205.93 55.242 L 205.93 55.242 L 205.93 55.242 Q 205.688 55.953 205.234 56.449 L 205.234 56.449 L 205.234 56.449 Q 204.781 56.945 204.141 57.211 L 204.141 57.211 L 204.141 57.211 Q 203.5 57.477 202.703 57.477 L 202.703 57.477 L 202.703 57.477 Q 201.922 57.477 201.238 57.172 L 201.238 57.172 L 201.238 57.172 Q 200.555 56.867 200.055 56.242 L 200.055 56.242 L 200.055 56.242 Q 199.555 55.617 199.266 54.672 L 199.266 54.672 L 199.266 54.672 Q 198.977 53.727 198.977 52.438 Z  M 202.688 56.281 L 202.688 56.281 L 202.688 56.281 Q 203.156 56.281 203.543 56.121 L 203.543 56.121 L 203.543 56.121 Q 203.93 55.961 204.211 55.637 L 204.211 55.637 L 204.211 55.637 Q 204.492 55.313 204.645 54.816 L 204.645 54.816 L 204.645 54.816 Q 204.797 54.32 204.797 53.641 L 204.797 53.641 L 204.797 53.641 Q 204.797 53.094 204.668 52.66 L 204.668 52.66 L 204.668 52.66 Q 204.539 52.227 204.281 51.922 L 204.281 51.922 L 204.281 51.922 Q 204.023 51.617 203.637 51.453 L 203.637 51.453 L 203.637 51.453 Q 203.25 51.289 202.734 51.289 L 202.734 51.289 L 202.734 51.289 Q 202.211 51.289 201.777 51.473 L 201.777 51.473 L 201.777 51.473 Q 201.344 51.656 201.039 51.949 L 201.039 51.949 L 201.039 51.949 Q 200.734 52.242 200.566 52.617 L 200.566 52.617 L 200.566 52.617 Q 200.398 52.992 200.398 53.367 L 200.398 53.367 L 200.398 53.367 Q 200.398 53.891 200.543 54.41 L 200.543 54.41 L 200.543 54.41 Q 200.688 54.93 200.973 55.344 L 200.973 55.344 L 200.973 55.344 Q 201.258 55.758 201.688 56.02 L 201.688 56.02 L 201.688 56.02 Q 202.117 56.281 202.688 56.281 Z  M 137.242 54.969 L 137.242 54.969 L 137.242 54.969 Q 137.242 55.594 137.016 56.063 L 137.016 56.063 L 137.016 56.063 Q 136.789 56.531 136.363 56.848 L 136.363 56.848 L 136.363 56.848 Q 135.938 57.164 135.336 57.32 L 135.336 57.32 L 135.336 57.32 Q 134.734 57.477 133.984 57.477 L 133.984 57.477 L 133.984 57.477 Q 133.133 57.477 132.523 57.34 L 132.523 57.34 L 132.523 57.34 Q 131.914 57.203 131.453 56.938 L 131.453 56.938 L 131.453 55.641 L 131.453 55.641 Q 131.695 55.766 131.992 55.887 L 131.992 55.887 L 131.992 55.887 Q 132.289 56.008 132.617 56.102 L 132.617 56.102 L 132.617 56.102 Q 132.945 56.195 133.293 56.254 L 133.293 56.254 L 133.293 56.254 Q 133.641 56.313 133.984 56.313 L 133.984 56.313 L 133.984 56.313 Q 134.492 56.313 134.848 56.227 L 134.848 56.227 L 134.848 56.227 Q 135.203 56.141 135.426 55.98 L 135.426 55.98 L 135.426 55.98 Q 135.648 55.82 135.75 55.59 L 135.75 55.59 L 135.75 55.59 Q 135.852 55.359 135.852 55.078 L 135.852 55.078 L 135.852 55.078 Q 135.852 54.836 135.773 54.641 L 135.773 54.641 L 135.773 54.641 Q 135.695 54.445 135.488 54.254 L 135.488 54.254 L 135.488 54.254 Q 135.281 54.063 134.922 53.867 L 134.922 53.867 L 134.922 53.867 Q 134.563 53.672 134 53.43 L 134 53.43 L 134 53.43 Q 133.438 53.188 132.988 52.953 L 132.988 52.953 L 132.988 52.953 Q 132.539 52.719 132.227 52.43 L 132.227 52.43 L 132.227 52.43 Q 131.914 52.141 131.746 51.762 L 131.746 51.762 L 131.746 51.762 Q 131.578 51.383 131.578 50.859 L 131.578 50.859 L 131.578 50.859 Q 131.578 50.313 131.793 49.887 L 131.793 49.887 L 131.793 49.887 Q 132.008 49.461 132.398 49.172 L 132.398 49.172 L 132.398 49.172 Q 132.789 48.883 133.336 48.734 L 133.336 48.734 L 133.336 48.734 Q 133.883 48.586 134.555 48.586 L 134.555 48.586 L 134.555 48.586 Q 135.313 48.586 135.941 48.75 L 135.941 48.75 L 135.941 48.75 Q 136.57 48.914 137.133 49.18 L 137.133 49.18 L 136.641 50.328 L 136.641 50.328 Q 136.133 50.102 135.598 49.934 L 135.598 49.934 L 135.598 49.934 Q 135.063 49.766 134.508 49.766 L 134.508 49.766 L 134.508 49.766 Q 133.711 49.766 133.328 50.027 L 133.328 50.027 L 133.328 50.027 Q 132.945 50.289 132.945 50.773 L 132.945 50.773 L 132.945 50.773 Q 132.945 51.047 133.035 51.25 L 133.035 51.25 L 133.035 51.25 Q 133.125 51.453 133.344 51.633 L 133.344 51.633 L 133.344 51.633 Q 133.563 51.813 133.93 51.996 L 133.93 51.996 L 133.93 51.996 Q 134.297 52.18 134.844 52.406 L 134.844 52.406 L 134.844 52.406 Q 135.406 52.641 135.848 52.875 L 135.848 52.875 L 135.848 52.875 Q 136.289 53.109 136.602 53.402 L 136.602 53.402 L 136.602 53.402 Q 136.914 53.695 137.078 54.07 L 137.078 54.07 L 137.078 54.07 Q 137.242 54.445 137.242 54.969 Z  M 140.75 48.742 L 140.75 57.32 L 139.328 57.32 L 139.328 48.742 L 140.75 48.742 L 140.75 48.742 Z  M 139.219 46.422 L 139.219 46.422 L 139.219 46.422 Q 139.219 45.953 139.457 45.742 L 139.457 45.742 L 139.457 45.742 Q 139.695 45.531 140.047 45.531 L 140.047 45.531 L 140.047 45.531 Q 140.219 45.531 140.371 45.582 L 140.371 45.582 L 140.371 45.582 Q 140.523 45.633 140.637 45.742 L 140.637 45.742 L 140.637 45.742 Q 140.75 45.852 140.816 46.02 L 140.816 46.02 L 140.816 46.02 Q 140.883 46.188 140.883 46.422 L 140.883 46.422 L 140.883 46.422 Q 140.883 46.875 140.637 47.098 L 140.637 47.098 L 140.637 47.098 Q 140.391 47.32 140.047 47.32 L 140.047 47.32 L 140.047 47.32 Q 139.695 47.32 139.457 47.102 L 139.457 47.102 L 139.457 47.102 Q 139.219 46.883 139.219 46.422 Z  M 150.25 57.32 L 148.828 57.32 L 148.828 51.797 L 148.828 51.797 Q 148.828 50.781 148.418 50.273 L 148.418 50.273 L 148.418 50.273 Q 148.008 49.766 147.133 49.766 L 147.133 49.766 L 147.133 49.766 Q 146.5 49.766 146.07 49.969 L 146.07 49.969 L 146.07 49.969 Q 145.641 50.172 145.379 50.57 L 145.379 50.57 L 145.379 50.57 Q 145.117 50.969 145.004 51.547 L 145.004 51.547 L 145.004 51.547 Q 144.891 52.125 144.891 52.875 L 144.891 52.875 L 144.891 57.32 L 143.469 57.32 L 143.469 48.742 L 144.625 48.742 L 144.828 49.898 L 144.906 49.898 L 144.906 49.898 Q 145.102 49.563 145.371 49.316 L 145.371 49.316 L 145.371 49.316 Q 145.641 49.07 145.961 48.906 L 145.961 48.906 L 145.961 48.906 Q 146.281 48.742 146.641 48.664 L 146.641 48.664 L 146.641 48.664 Q 147 48.586 147.375 48.586 L 147.375 48.586 L 147.375 48.586 Q 148.805 48.586 149.527 49.332 L 149.527 49.332 L 149.527 49.332 Q 150.25 50.078 150.25 51.719 L 150.25 51.719 L 150.25 57.32 L 150.25 57.32 Z  M 156.172 57.477 L 156.172 57.477 L 156.172 57.477 Q 155.383 57.477 154.695 57.23 L 154.695 57.23 L 154.695 57.23 Q 154.008 56.984 153.5 56.449 L 153.5 56.449 L 153.5 56.449 Q 152.992 55.914 152.703 55.082 L 152.703 55.082 L 152.703 55.082 Q 152.414 54.25 152.414 53.078 L 152.414 53.078 L 152.414 53.078 Q 152.414 51.852 152.711 50.996 L 152.711 50.996 L 152.711 50.996 Q 153.008 50.141 153.527 49.605 L 153.527 49.605 L 153.527 49.605 Q 154.047 49.07 154.742 48.828 L 154.742 48.828 L 154.742 48.828 Q 155.438 48.586 156.234 48.586 L 156.234 48.586 L 156.234 48.586 Q 156.844 48.586 157.426 48.719 L 157.426 48.719 L 157.426 48.719 Q 158.008 48.852 158.398 49.047 L 158.398 49.047 L 157.977 50.25 L 157.977 50.25 Q 157.797 50.172 157.578 50.098 L 157.578 50.098 L 157.578 50.098 Q 157.359 50.023 157.125 49.965 L 157.125 49.965 L 157.125 49.965 Q 156.891 49.906 156.664 49.871 L 156.664 49.871 L 156.664 49.871 Q 156.438 49.836 156.234 49.836 L 156.234 49.836 L 156.234 49.836 Q 155.008 49.836 154.445 50.621 L 154.445 50.621 L 154.445 50.621 Q 153.883 51.406 153.883 53.063 L 153.883 53.063 L 153.883 53.063 Q 153.883 54.711 154.449 55.473 L 154.449 55.473 L 154.449 55.473 Q 155.016 56.234 156.172 56.234 L 156.172 56.234 L 156.172 56.234 Q 156.805 56.234 157.316 56.09 L 157.316 56.09 L 157.316 56.09 Q 157.828 55.945 158.25 55.75 L 158.25 55.75 L 158.25 57.016 L 158.25 57.016 Q 157.828 57.242 157.348 57.359 L 157.348 57.359 L 157.348 57.359 Q 156.867 57.477 156.172 57.477 Z  M 163.688 57.477 L 163.688 57.477 L 163.688 57.477 Q 162.828 57.477 162.117 57.188 L 162.117 57.188 L 162.117 57.188 Q 161.406 56.898 160.895 56.344 L 160.895 56.344 L 160.895 56.344 Q 160.383 55.789 160.102 54.969 L 160.102 54.969 L 160.102 54.969 Q 159.82 54.148 159.82 53.094 L 159.82 53.094 L 159.82 53.094 Q 159.82 52.031 160.078 51.195 L 160.078 51.195 L 160.078 51.195 Q 160.336 50.359 160.805 49.777 L 160.805 49.777 L 160.805 49.777 Q 161.273 49.195 161.926 48.891 L 161.926 48.891 L 161.926 48.891 Q 162.578 48.586 163.367 48.586 L 163.367 48.586 L 163.367 48.586 Q 164.141 48.586 164.758 48.863 L 164.758 48.863 L 164.758 48.863 Q 165.375 49.141 165.805 49.645 L 165.805 49.645 L 165.805 49.645 Q 166.234 50.148 166.465 50.855 L 166.465 50.855 L 166.465 50.855 Q 166.695 51.563 166.695 52.422 L 166.695 52.422 L 166.695 53.305 L 161.289 53.305 L 161.289 53.305 Q 161.328 54.813 161.926 55.523 L 161.926 55.523 L 161.926 55.523 Q 162.523 56.234 163.703 56.234 L 163.703 56.234 L 163.703 56.234 Q 164.102 56.234 164.441 56.195 L 164.441 56.195 L 164.441 56.195 Q 164.781 56.156 165.098 56.082 L 165.098 56.082 L 165.098 56.082 Q 165.414 56.008 165.711 55.895 L 165.711 55.895 L 165.711 55.895 Q 166.008 55.781 166.313 55.641 L 166.313 55.641 L 166.313 56.906 L 166.313 56.906 Q 166 57.055 165.699 57.164 L 165.699 57.164 L 165.699 57.164 Q 165.398 57.273 165.082 57.344 L 165.082 57.344 L 165.082 57.344 Q 164.766 57.414 164.426 57.445 L 164.426 57.445 L 164.426 57.445 Q 164.086 57.477 163.688 57.477 Z  M 163.336 49.766 L 163.336 49.766 L 163.336 49.766 Q 162.445 49.766 161.926 50.375 L 161.926 50.375 L 161.926 50.375 Q 161.406 50.984 161.32 52.148 L 161.32 52.148 L 165.164 52.148 L 165.164 52.148 Q 165.164 51.617 165.059 51.176 L 165.059 51.176 L 165.059 51.176 Q 164.953 50.734 164.73 50.422 L 164.73 50.422 L 164.73 50.422 Q 164.508 50.109 164.164 49.938 L 164.164 49.938 L 164.164 49.938 Q 163.82 49.766 163.336 49.766 Z  M 77.781 57.477 L 77.781 57.477 L 77.781 57.477 Q 77.32 57.477 76.945 57.375 L 76.945 57.375 L 76.945 57.375 Q 76.57 57.273 76.27 57.105 L 76.27 57.105 L 76.27 57.105 Q 75.969 56.938 75.738 56.711 L 75.738 56.711 L 75.738 56.711 Q 75.508 56.484 75.328 56.234 L 75.328 56.234 L 75.234 56.234 L 75.234 56.234 Q 75.258 56.5 75.281 56.742 L 75.281 56.742 L 75.281 56.742 Q 75.297 56.945 75.313 57.16 L 75.313 57.16 L 75.313 57.16 Q 75.328 57.375 75.328 57.5 L 75.328 57.5 L 75.328 61.164 L 73.906 61.164 L 73.906 48.742 L 75.063 48.742 L 75.266 49.898 L 75.328 49.898 L 75.328 49.898 Q 75.508 49.625 75.734 49.387 L 75.734 49.387 L 75.734 49.387 Q 75.961 49.148 76.262 48.973 L 76.262 48.973 L 76.262 48.973 Q 76.563 48.797 76.938 48.691 L 76.938 48.691 L 76.938 48.691 Q 77.313 48.586 77.781 48.586 L 77.781 48.586 L 77.781 48.586 Q 78.516 48.586 79.117 48.867 L 79.117 48.867 L 79.117 48.867 Q 79.719 49.148 80.145 49.707 L 80.145 49.707 L 80.145 49.707 Q 80.57 50.266 80.805 51.094 L 80.805 51.094 L 80.805 51.094 Q 81.039 51.922 81.039 53.016 L 81.039 53.016 L 81.039 53.016 Q 81.039 54.117 80.805 54.949 L 80.805 54.949 L 80.805 54.949 Q 80.57 55.781 80.145 56.344 L 80.145 56.344 L 80.145 56.344 Q 79.719 56.906 79.117 57.191 L 79.117 57.191 L 79.117 57.191 Q 78.516 57.477 77.781 57.477 Z  M 77.508 49.766 L 77.508 49.766 L 77.508 49.766 Q 76.914 49.766 76.504 49.945 L 76.504 49.945 L 76.504 49.945 Q 76.094 50.125 75.84 50.492 L 75.84 50.492 L 75.84 50.492 Q 75.586 50.859 75.465 51.406 L 75.465 51.406 L 75.465 51.406 Q 75.344 51.953 75.328 52.695 L 75.328 52.695 L 75.328 53.016 L 75.328 53.016 Q 75.328 53.805 75.434 54.418 L 75.434 54.418 L 75.434 54.418 Q 75.539 55.031 75.793 55.449 L 75.793 55.449 L 75.793 55.449 Q 76.047 55.867 76.469 56.082 L 76.469 56.082 L 76.469 56.082 Q 76.891 56.297 77.523 56.297 L 77.523 56.297 L 77.523 56.297 Q 78.578 56.297 79.074 55.445 L 79.074 55.445 L 79.074 55.445 Q 79.57 54.594 79.57 53 L 79.57 53 L 79.57 53 Q 79.57 51.375 79.074 50.57 L 79.074 50.57 L 79.074 50.57 Q 78.578 49.766 77.508 49.766 Z  M 90.273 53.016 L 90.273 53.016 L 90.273 53.016 Q 90.273 54.086 90.012 54.918 L 90.012 54.918 L 90.012 54.918 Q 89.75 55.75 89.262 56.316 L 89.262 56.316 L 89.262 56.316 Q 88.773 56.883 88.078 57.18 L 88.078 57.18 L 88.078 57.18 Q 87.383 57.477 86.516 57.477 L 86.516 57.477 L 86.516 57.477 Q 85.711 57.477 85.031 57.18 L 85.031 57.18 L 85.031 57.18 Q 84.352 56.883 83.855 56.316 L 83.855 56.316 L 83.855 56.316 Q 83.359 55.75 83.082 54.918 L 83.082 54.918 L 83.082 54.918 Q 82.805 54.086 82.805 53.016 L 82.805 53.016 L 82.805 53.016 Q 82.805 51.953 83.066 51.129 L 83.066 51.129 L 83.066 51.129 Q 83.328 50.305 83.813 49.738 L 83.813 49.738 L 83.813 49.738 Q 84.297 49.172 84.996 48.879 L 84.996 48.879 L 84.996 48.879 Q 85.695 48.586 86.563 48.586 L 86.563 48.586 L 86.563 48.586 Q 87.367 48.586 88.047 48.879 L 88.047 48.879 L 88.047 48.879 Q 88.727 49.172 89.223 49.738 L 89.223 49.738 L 89.223 49.738 Q 89.719 50.305 89.996 51.129 L 89.996 51.129 L 89.996 51.129 Q 90.273 51.953 90.273 53.016 Z  M 84.273 53.016 L 84.273 53.016 L 84.273 53.016 Q 84.273 54.648 84.809 55.473 L 84.809 55.473 L 84.809 55.473 Q 85.344 56.297 86.547 56.297 L 86.547 56.297 L 86.547 56.297 Q 87.75 56.297 88.277 55.473 L 88.277 55.473 L 88.277 55.473 Q 88.805 54.648 88.805 53.016 L 88.805 53.016 L 88.805 53.016 Q 88.805 51.383 88.27 50.574 L 88.27 50.574 L 88.27 50.574 Q 87.734 49.766 86.531 49.766 L 86.531 49.766 L 86.531 49.766 Q 85.328 49.766 84.801 50.574 L 84.801 50.574 L 84.801 50.574 Q 84.273 51.383 84.273 53.016 Z  M 95.109 56.313 L 95.109 56.313 L 95.109 56.313 Q 95.25 56.313 95.426 56.297 L 95.426 56.297 L 95.426 56.297 Q 95.602 56.281 95.766 56.258 L 95.766 56.258 L 95.766 56.258 Q 95.93 56.234 96.066 56.203 L 96.066 56.203 L 96.066 56.203 Q 96.203 56.172 96.273 56.148 L 96.273 56.148 L 96.273 57.227 L 96.273 57.227 Q 96.172 57.273 96.016 57.32 L 96.016 57.32 L 96.016 57.32 Q 95.859 57.367 95.672 57.402 L 95.672 57.402 L 95.672 57.402 Q 95.484 57.438 95.281 57.457 L 95.281 57.457 L 95.281 57.457 Q 95.078 57.477 94.883 57.477 L 94.883 57.477 L 94.883 57.477 Q 94.398 57.477 93.984 57.352 L 93.984 57.352 L 93.984 57.352 Q 93.57 57.227 93.27 56.922 L 93.27 56.922 L 93.27 56.922 Q 92.969 56.617 92.797 56.098 L 92.797 56.098 L 92.797 56.098 Q 92.625 55.578 92.625 54.789 L 92.625 54.789 L 92.625 49.813 L 91.414 49.813 L 91.414 49.18 L 92.625 48.57 L 93.234 46.773 L 94.055 46.773 L 94.055 48.742 L 96.211 48.742 L 96.211 49.813 L 94.055 49.813 L 94.055 54.789 L 94.055 54.789 Q 94.055 55.547 94.301 55.93 L 94.301 55.93 L 94.301 55.93 Q 94.547 56.313 95.109 56.313 Z  M 99.359 48.742 L 99.359 57.32 L 97.938 57.32 L 97.938 48.742 L 99.359 48.742 L 99.359 48.742 Z  M 97.828 46.422 L 97.828 46.422 L 97.828 46.422 Q 97.828 45.953 98.066 45.742 L 98.066 45.742 L 98.066 45.742 Q 98.305 45.531 98.656 45.531 L 98.656 45.531 L 98.656 45.531 Q 98.828 45.531 98.98 45.582 L 98.98 45.582 L 98.98 45.582 Q 99.133 45.633 99.246 45.742 L 99.246 45.742 L 99.246 45.742 Q 99.359 45.852 99.426 46.02 L 99.426 46.02 L 99.426 46.02 Q 99.492 46.188 99.492 46.422 L 99.492 46.422 L 99.492 46.422 Q 99.492 46.875 99.246 47.098 L 99.246 47.098 L 99.246 47.098 Q 99 47.32 98.656 47.32 L 98.656 47.32 L 98.656 47.32 Q 98.305 47.32 98.066 47.102 L 98.066 47.102 L 98.066 47.102 Q 97.828 46.883 97.828 46.422 Z  M 109.07 53.016 L 109.07 53.016 L 109.07 53.016 Q 109.07 54.086 108.809 54.918 L 108.809 54.918 L 108.809 54.918 Q 108.547 55.75 108.059 56.316 L 108.059 56.316 L 108.059 56.316 Q 107.57 56.883 106.875 57.18 L 106.875 57.18 L 106.875 57.18 Q 106.18 57.477 105.313 57.477 L 105.313 57.477 L 105.313 57.477 Q 104.508 57.477 103.828 57.18 L 103.828 57.18 L 103.828 57.18 Q 103.148 56.883 102.652 56.316 L 102.652 56.316 L 102.652 56.316 Q 102.156 55.75 101.879 54.918 L 101.879 54.918 L 101.879 54.918 Q 101.602 54.086 101.602 53.016 L 101.602 53.016 L 101.602 53.016 Q 101.602 51.953 101.863 51.129 L 101.863 51.129 L 101.863 51.129 Q 102.125 50.305 102.609 49.738 L 102.609 49.738 L 102.609 49.738 Q 103.094 49.172 103.793 48.879 L 103.793 48.879 L 103.793 48.879 Q 104.492 48.586 105.359 48.586 L 105.359 48.586 L 105.359 48.586 Q 106.164 48.586 106.844 48.879 L 106.844 48.879 L 106.844 48.879 Q 107.523 49.172 108.02 49.738 L 108.02 49.738 L 108.02 49.738 Q 108.516 50.305 108.793 51.129 L 108.793 51.129 L 108.793 51.129 Q 109.07 51.953 109.07 53.016 Z  M 103.07 53.016 L 103.07 53.016 L 103.07 53.016 Q 103.07 54.648 103.605 55.473 L 103.605 55.473 L 103.605 55.473 Q 104.141 56.297 105.344 56.297 L 105.344 56.297 L 105.344 56.297 Q 106.547 56.297 107.074 55.473 L 107.074 55.473 L 107.074 55.473 Q 107.602 54.648 107.602 53.016 L 107.602 53.016 L 107.602 53.016 Q 107.602 51.383 107.066 50.574 L 107.066 50.574 L 107.066 50.574 Q 106.531 49.766 105.328 49.766 L 105.328 49.766 L 105.328 49.766 Q 104.125 49.766 103.598 50.574 L 103.598 50.574 L 103.598 50.574 Q 103.07 51.383 103.07 53.016 Z  M 118.094 57.32 L 116.672 57.32 L 116.672 51.797 L 116.672 51.797 Q 116.672 50.781 116.262 50.273 L 116.262 50.273 L 116.262 50.273 Q 115.852 49.766 114.977 49.766 L 114.977 49.766 L 114.977 49.766 Q 114.344 49.766 113.914 49.969 L 113.914 49.969 L 113.914 49.969 Q 113.484 50.172 113.223 50.57 L 113.223 50.57 L 113.223 50.57 Q 112.961 50.969 112.848 51.547 L 112.848 51.547 L 112.848 51.547 Q 112.734 52.125 112.734 52.875 L 112.734 52.875 L 112.734 57.32 L 111.313 57.32 L 111.313 48.742 L 112.469 48.742 L 112.672 49.898 L 112.75 49.898 L 112.75 49.898 Q 112.945 49.563 113.215 49.316 L 113.215 49.316 L 113.215 49.316 Q 113.484 49.07 113.805 48.906 L 113.805 48.906 L 113.805 48.906 Q 114.125 48.742 114.484 48.664 L 114.484 48.664 L 114.484 48.664 Q 114.844 48.586 115.219 48.586 L 115.219 48.586 L 115.219 48.586 Q 116.648 48.586 117.371 49.332 L 117.371 49.332 L 117.371 49.332 Q 118.094 50.078 118.094 51.719 L 118.094 51.719 L 118.094 57.32 L 118.094 57.32 Z  M 125.867 54.969 L 125.867 54.969 L 125.867 54.969 Q 125.867 55.594 125.641 56.063 L 125.641 56.063 L 125.641 56.063 Q 125.414 56.531 124.988 56.848 L 124.988 56.848 L 124.988 56.848 Q 124.563 57.164 123.961 57.32 L 123.961 57.32 L 123.961 57.32 Q 123.359 57.477 122.609 57.477 L 122.609 57.477 L 122.609 57.477 Q 121.758 57.477 121.148 57.34 L 121.148 57.34 L 121.148 57.34 Q 120.539 57.203 120.078 56.938 L 120.078 56.938 L 120.078 55.641 L 120.078 55.641 Q 120.32 55.766 120.617 55.887 L 120.617 55.887 L 120.617 55.887 Q 120.914 56.008 121.242 56.102 L 121.242 56.102 L 121.242 56.102 Q 121.57 56.195 121.918 56.254 L 121.918 56.254 L 121.918 56.254 Q 122.266 56.313 122.609 56.313 L 122.609 56.313 L 122.609 56.313 Q 123.117 56.313 123.473 56.227 L 123.473 56.227 L 123.473 56.227 Q 123.828 56.141 124.051 55.98 L 124.051 55.98 L 124.051 55.98 Q 124.273 55.82 124.375 55.59 L 124.375 55.59 L 124.375 55.59 Q 124.477 55.359 124.477 55.078 L 124.477 55.078 L 124.477 55.078 Q 124.477 54.836 124.398 54.641 L 124.398 54.641 L 124.398 54.641 Q 124.32 54.445 124.113 54.254 L 124.113 54.254 L 124.113 54.254 Q 123.906 54.063 123.547 53.867 L 123.547 53.867 L 123.547 53.867 Q 123.188 53.672 122.625 53.43 L 122.625 53.43 L 122.625 53.43 Q 122.063 53.188 121.613 52.953 L 121.613 52.953 L 121.613 52.953 Q 121.164 52.719 120.852 52.43 L 120.852 52.43 L 120.852 52.43 Q 120.539 52.141 120.371 51.762 L 120.371 51.762 L 120.371 51.762 Q 120.203 51.383 120.203 50.859 L 120.203 50.859 L 120.203 50.859 Q 120.203 50.313 120.418 49.887 L 120.418 49.887 L 120.418 49.887 Q 120.633 49.461 121.023 49.172 L 121.023 49.172 L 121.023 49.172 Q 121.414 48.883 121.961 48.734 L 121.961 48.734 L 121.961 48.734 Q 122.508 48.586 123.18 48.586 L 123.18 48.586 L 123.18 48.586 Q 123.938 48.586 124.566 48.75 L 124.566 48.75 L 124.566 48.75 Q 125.195 48.914 125.758 49.18 L 125.758 49.18 L 125.266 50.328 L 125.266 50.328 Q 124.758 50.102 124.223 49.934 L 124.223 49.934 L 124.223 49.934 Q 123.688 49.766 123.133 49.766 L 123.133 49.766 L 123.133 49.766 Q 122.336 49.766 121.953 50.027 L 121.953 50.027 L 121.953 50.027 Q 121.57 50.289 121.57 50.773 L 121.57 50.773 L 121.57 50.773 Q 121.57 51.047 121.66 51.25 L 121.66 51.25 L 121.66 51.25 Q 121.75 51.453 121.969 51.633 L 121.969 51.633 L 121.969 51.633 Q 122.188 51.813 122.555 51.996 L 122.555 51.996 L 122.555 51.996 Q 122.922 52.18 123.469 52.406 L 123.469 52.406 L 123.469 52.406 Q 124.031 52.641 124.473 52.875 L 124.473 52.875 L 124.473 52.875 Q 124.914 53.109 125.227 53.402 L 125.227 53.402 L 125.227 53.402 Q 125.539 53.695 125.703 54.07 L 125.703 54.07 L 125.703 54.07 Q 125.867 54.445 125.867 54.969 Z  M 46.086 48.742 L 46.086 49.813 L 44.172 49.813 L 44.172 57.32 L 42.742 57.32 L 42.742 49.813 L 41.227 49.813 L 41.227 49.227 L 42.742 48.695 L 42.742 47.945 L 42.742 47.945 Q 42.742 47.109 42.918 46.559 L 42.918 46.559 L 42.918 46.559 Q 43.094 46.008 43.426 45.68 L 43.426 45.68 L 43.426 45.68 Q 43.758 45.352 44.242 45.215 L 44.242 45.215 L 44.242 45.215 Q 44.727 45.078 45.336 45.078 L 45.336 45.078 L 45.336 45.078 Q 45.797 45.078 46.184 45.168 L 46.184 45.168 L 46.184 45.168 Q 46.57 45.258 46.875 45.367 L 46.875 45.367 L 46.508 46.469 L 46.508 46.469 Q 46.266 46.383 45.98 46.316 L 45.98 46.316 L 45.98 46.316 Q 45.695 46.25 45.383 46.25 L 45.383 46.25 L 45.383 46.25 Q 45.07 46.25 44.844 46.324 L 44.844 46.324 L 44.844 46.324 Q 44.617 46.398 44.469 46.586 L 44.469 46.586 L 44.469 46.586 Q 44.32 46.773 44.246 47.098 L 44.246 47.098 L 44.246 47.098 Q 44.172 47.422 44.172 47.93 L 44.172 47.93 L 44.172 48.742 L 46.086 48.742 L 46.086 48.742 Z  M 49.047 48.742 L 49.047 57.32 L 47.625 57.32 L 47.625 48.742 L 49.047 48.742 L 49.047 48.742 Z  M 47.516 46.422 L 47.516 46.422 L 47.516 46.422 Q 47.516 45.953 47.754 45.742 L 47.754 45.742 L 47.754 45.742 Q 47.992 45.531 48.344 45.531 L 48.344 45.531 L 48.344 45.531 Q 48.516 45.531 48.668 45.582 L 48.668 45.582 L 48.668 45.582 Q 48.82 45.633 48.934 45.742 L 48.934 45.742 L 48.934 45.742 Q 49.047 45.852 49.113 46.02 L 49.113 46.02 L 49.113 46.02 Q 49.18 46.188 49.18 46.422 L 49.18 46.422 L 49.18 46.422 Q 49.18 46.875 48.934 47.098 L 48.934 47.098 L 48.934 47.098 Q 48.688 47.32 48.344 47.32 L 48.344 47.32 L 48.344 47.32 Q 47.992 47.32 47.754 47.102 L 47.754 47.102 L 47.754 47.102 Q 47.516 46.883 47.516 46.422 Z  M 58.547 57.32 L 57.125 57.32 L 57.125 51.797 L 57.125 51.797 Q 57.125 50.781 56.715 50.273 L 56.715 50.273 L 56.715 50.273 Q 56.305 49.766 55.43 49.766 L 55.43 49.766 L 55.43 49.766 Q 54.797 49.766 54.367 49.969 L 54.367 49.969 L 54.367 49.969 Q 53.938 50.172 53.676 50.57 L 53.676 50.57 L 53.676 50.57 Q 53.414 50.969 53.301 51.547 L 53.301 51.547 L 53.301 51.547 Q 53.188 52.125 53.188 52.875 L 53.188 52.875 L 53.188 57.32 L 51.766 57.32 L 51.766 48.742 L 52.922 48.742 L 53.125 49.898 L 53.203 49.898 L 53.203 49.898 Q 53.398 49.563 53.668 49.316 L 53.668 49.316 L 53.668 49.316 Q 53.938 49.07 54.258 48.906 L 54.258 48.906 L 54.258 48.906 Q 54.578 48.742 54.938 48.664 L 54.938 48.664 L 54.938 48.664 Q 55.297 48.586 55.672 48.586 L 55.672 48.586 L 55.672 48.586 Q 57.102 48.586 57.824 49.332 L 57.824 49.332 L 57.824 49.332 Q 58.547 50.078 58.547 51.719 L 58.547 51.719 L 58.547 57.32 L 58.547 57.32 Z  M 64.578 57.477 L 64.578 57.477 L 64.578 57.477 Q 63.719 57.477 63.008 57.188 L 63.008 57.188 L 63.008 57.188 Q 62.297 56.898 61.785 56.344 L 61.785 56.344 L 61.785 56.344 Q 61.273 55.789 60.992 54.969 L 60.992 54.969 L 60.992 54.969 Q 60.711 54.148 60.711 53.094 L 60.711 53.094 L 60.711 53.094 Q 60.711 52.031 60.969 51.195 L 60.969 51.195 L 60.969 51.195 Q 61.227 50.359 61.695 49.777 L 61.695 49.777 L 61.695 49.777 Q 62.164 49.195 62.816 48.891 L 62.816 48.891 L 62.816 48.891 Q 63.469 48.586 64.258 48.586 L 64.258 48.586 L 64.258 48.586 Q 65.031 48.586 65.648 48.863 L 65.648 48.863 L 65.648 48.863 Q 66.266 49.141 66.695 49.645 L 66.695 49.645 L 66.695 49.645 Q 67.125 50.148 67.355 50.855 L 67.355 50.855 L 67.355 50.855 Q 67.586 51.563 67.586 52.422 L 67.586 52.422 L 67.586 53.305 L 62.18 53.305 L 62.18 53.305 Q 62.219 54.813 62.816 55.523 L 62.816 55.523 L 62.816 55.523 Q 63.414 56.234 64.594 56.234 L 64.594 56.234 L 64.594 56.234 Q 64.992 56.234 65.332 56.195 L 65.332 56.195 L 65.332 56.195 Q 65.672 56.156 65.988 56.082 L 65.988 56.082 L 65.988 56.082 Q 66.305 56.008 66.602 55.895 L 66.602 55.895 L 66.602 55.895 Q 66.898 55.781 67.203 55.641 L 67.203 55.641 L 67.203 56.906 L 67.203 56.906 Q 66.891 57.055 66.59 57.164 L 66.59 57.164 L 66.59 57.164 Q 66.289 57.273 65.973 57.344 L 65.973 57.344 L 65.973 57.344 Q 65.656 57.414 65.316 57.445 L 65.316 57.445 L 65.316 57.445 Q 64.977 57.477 64.578 57.477 Z  M 64.227 49.766 L 64.227 49.766 L 64.227 49.766 Q 63.336 49.766 62.816 50.375 L 62.816 50.375 L 62.816 50.375 Q 62.297 50.984 62.211 52.148 L 62.211 52.148 L 66.055 52.148 L 66.055 52.148 Q 66.055 51.617 65.949 51.176 L 65.949 51.176 L 65.949 51.176 Q 65.844 50.734 65.621 50.422 L 65.621 50.422 L 65.621 50.422 Q 65.398 50.109 65.055 49.938 L 65.055 49.938 L 65.055 49.938 Q 64.711 49.766 64.227 49.766 Z " fill-rule="evenodd" fill="rgb(82,52,104)"/><g><line x1="221" y1="52.1" x2="243" y2="52.1" vector-effect="non-scaling-stroke" stroke-width="2" stroke="rgb(195,195,195)" stroke-linejoin="miter" stroke-linecap="square" stroke-miterlimit="3"/><line x1="5" y1="52.1" x2="27" y2="52.1" vector-effect="non-scaling-stroke" stroke-width="2" stroke="rgb(195,195,195)" stroke-linejoin="miter" stroke-linecap="square" stroke-miterlimit="3"/></g></g></svg>