<?xml version="1.0" standalone="no"?><!-- Generator: Gravit.io --><svg xmlns="http://www.w3.org/2000/svg" xmlns:xlink="http://www.w3.org/1999/xlink" style="isolation:isolate" viewBox="0 0 448 512" width="448" height="512"><defs><clipPath id="_clipPath_bqQpl664pcqQp1vlFOjGkppNh06mt3VY"><rect width="448" height="512"/></clipPath></defs><g clip-path="url(#_clipPath_bqQpl664pcqQp1vlFOjGkppNh06mt3VY)"><clipPath id="_clipPath_TZRywFs2r94aA7gGUObB3WG6GkYlOTss"><circle vector-effect="non-scaling-stroke" cx="223" cy="255" r="215.5" fill="rgb(255,255,255)"/></clipPath><g clip-path="url(#_clipPath_TZRywFs2r94aA7gGUObB3WG6GkYlOTss)"><path d=" M 448 80 L 448 432 C 448 458.5 426.5 480 400 480 L 154.4 480 C 164.2 463.6 176.8 440 181.8 420.7 C 184.8 409.2 197.1 362.3 197.1 362.3 C 205.1 377.6 228.5 390.5 253.4 390.5 C 327.5 390.5 380.8 322.4 380.8 237.8 C 380.8 156.7 314.6 96 229.4 96 C 123.4 96 67.2 167.1 67.2 244.6 C 67.2 280.6 86.4 325.4 117 339.7 C 121.7 341.9 124.1 340.9 125.2 336.4 C 126 333 130.2 316.3 132 308.6 C 132.6 306.1 132.3 304 130.3 301.6 C 120.2 289.3 112 266.7 112 245.6 C 112 191.4 153 139 222.9 139 C 283.2 139 325.5 180.1 325.5 238.9 C 325.5 305.3 292 351.3 248.3 351.3 C 224.2 351.3 206.2 331.4 211.9 306.9 C 218.8 277.7 232.2 246.2 232.2 225.1 C 232.2 172.1 156.7 179.4 156.7 250.1 C 156.7 271.8 164 286.6 164 286.6 C 132.6 419.4 127.9 421.1 134.4 479.2 L 136.6 480 L 48 480 C 21.5 480 0 458.5 0 432 L 0 80 C 0 53.5 21.5 32 48 32 L 400 32 C 426.5 32 448 53.5 448 80 Z " fill="rgb(82,52,104)"/></g></g></svg>