<?xml version="1.0" standalone="no"?><!-- Generator: Gravit.io --><svg xmlns="http://www.w3.org/2000/svg" xmlns:xlink="http://www.w3.org/1999/xlink" style="isolation:isolate" viewBox="0 0 448 512" width="448" height="512"><defs><clipPath id="_clipPath_FYZ2nhQHnSiyJDtfu3y81wTpEbl8ppiJ"><rect width="448" height="512"/></clipPath></defs><g clip-path="url(#_clipPath_FYZ2nhQHnSiyJDtfu3y81wTpEbl8ppiJ)"><clipPath id="_clipPath_KyNxBTyKVorV77xa6KTsSdfv22WBNrUe"><circle vector-effect="non-scaling-stroke" cx="223" cy="255" r="215.5" fill="rgb(255,255,255)"/></clipPath><g clip-path="url(#_clipPath_KyNxBTyKVorV77xa6KTsSdfv22WBNrUe)"><path d=" M 400 32 L 48 32 C 21.5 32 0 53.5 0 80 L 0 432 C 0 458.5 21.5 480 48 480 L 400 480 C 426.5 480 448 458.5 448 432 L 448 80 C 448 53.5 426.5 32 400 32 Z  M 317.7 396.2 C 309.2 405.3 286.5 416 256.8 416 C 181.3 416 164.9 360.5 164.9 328.1 L 164.9 238.1 L 135.2 238.1 C 131.8 238.1 129 235.3 129 231.9 L 129 189.4 C 129 184.9 131.8 180.9 136.1 179.4 C 174.9 165.7 187 131.9 188.8 106.2 C 189.3 99.3 192.9 96 198.8 96 L 243.1 96 C 246.5 96 249.3 98.8 249.3 102.2 L 249.3 174.2 L 301.2 174.2 C 304.6 174.2 307.4 177 307.4 180.4 L 307.4 231.5 C 307.4 234.9 304.6 237.7 301.2 237.7 L 249.1 237.7 L 249.1 321 C 249.1 342.4 263.9 354.5 291.6 343.4 C 294.6 342.2 297.2 341.4 299.6 342 C 301.8 342.5 303.2 344.1 304.2 346.9 L 318 387.1 C 319 390.3 320 393.8 317.7 396.2 L 317.7 396.2 L 317.7 396.2 Z " fill="rgb(82,52,104)"/></g></g></svg>