<?xml version="1.0" standalone="no"?><!-- Generator: Gravit.io --><svg xmlns="http://www.w3.org/2000/svg" xmlns:xlink="http://www.w3.org/1999/xlink" style="isolation:isolate" viewBox="0 0 448 512" width="448" height="512"><defs><clipPath id="_clipPath_TdwgkPaDNhh5SxVCvJfEAEsdp4Nv9o4j"><rect width="448" height="512"/></clipPath></defs><g clip-path="url(#_clipPath_TdwgkPaDNhh5SxVCvJfEAEsdp4Nv9o4j)"><clipPath id="_clipPath_78CT0P4ZxbUeZoeM3YW4t8KWSQAJKewv"><circle vector-effect="non-scaling-stroke" cx="224" cy="256" r="215.5" fill="rgb(255,255,255)"/></clipPath><g clip-path="url(#_clipPath_78CT0P4ZxbUeZoeM3YW4t8KWSQAJKewv)"><path d=" M 400 32 L 48 32 C 21.5 32 0 53.5 0 80 L 0 432 C 0 458.5 21.5 480 48 480 L 400 480 C 426.5 480 448 458.5 448 432 L 448 80 C 448 53.5 426.5 32 400 32 Z  M 351.1 190.8 C 351.3 193.6 351.3 196.5 351.3 199.3 C 351.3 286 285.3 385.9 164.7 385.9 C 127.5 385.9 93 375.1 64 356.5 C 69.3 357.1 74.4 357.3 79.8 357.3 C 110.5 357.3 138.7 346.9 161.2 329.3 C 132.4 328.7 108.2 309.8 99.9 283.8 C 110 285.3 119.1 285.3 129.5 282.6 C 99.5 276.5 77 250.1 77 218.2 L 77 217.4 C 85.7 222.3 95.9 225.3 106.6 225.7 C 88.3 213.5 77.4 193 77.4 171.1 C 77.4 158.9 80.6 147.7 86.3 138 C 118.6 177.8 167.1 203.8 221.5 206.6 C 212.2 162.1 245.5 126 285.5 126 C 304.4 126 321.4 133.9 333.4 146.7 C 348.2 143.9 362.4 138.4 375 130.9 C 370.1 146.1 359.8 158.9 346.2 167 C 359.4 165.6 372.2 161.9 384 156.8 C 375.1 169.9 363.9 181.5 351.1 190.8 Z " fill="rgb(82,52,104)"/></g></g></svg>